<?xml version="1.0" encoding="UTF-8" standalone="no"?>
<svg
   xmlns:dc="http://purl.org/dc/elements/1.1/"
   xmlns:cc="http://creativecommons.org/ns#"
   xmlns:rdf="http://www.w3.org/1999/02/22-rdf-syntax-ns#"
   xmlns:svg="http://www.w3.org/2000/svg"
   xmlns="http://www.w3.org/2000/svg"
   viewBox="0 0 459.85333 313.45334"
   height="313.45334"
   width="459.85333"
   xml:space="preserve"
   id="svg2"
   version="1.1"><metadata
     id="metadata8"><rdf:RDF><cc:Work
         rdf:about=""><dc:format>image/svg+xml</dc:format><dc:type
           rdf:resource="http://purl.org/dc/dcmitype/StillImage" /></cc:Work></rdf:RDF></metadata><defs
     id="defs6" /><g
     transform="matrix(1.3333333,0,0,-1.3333333,0,313.45333)"
     id="g10"><g
       transform="scale(0.1)"
       id="g12"><path
         id="path14"
         style="fill:#52afe6;fill-opacity:1;fill-rule:nonzero;stroke:none"
         d="M 340.215,620.719 212.863,450.898 H 198.32 L 73.7422,621.281 V 336.93 H 0 V 727.98 H 84.9336 L 207.27,559.84 329.609,727.98 h 84.352 V 336.93 h -73.746 v 283.789" /><path
         id="path16"
         style="fill:#52afe6;fill-opacity:1;fill-rule:nonzero;stroke:none"
         d="m 536.855,475.469 c 0,-52.508 36.317,-83.789 81.555,-83.789 107.258,0 107.258,167.039 0,167.039 -45.238,0 -81.555,-30.739 -81.555,-83.25 z M 702.223,612.91 h 65.351 V 337.492 h -64.258 l -3.332,40.227 C 684.344,345.32 641.32,329.66 610.602,329.102 529.027,328.559 468.707,378.84 468.707,475.469 c 0,94.972 63.117,144.691 143.574,144.133 36.871,0 72.063,-17.321 87.703,-44.68 l 2.239,37.988" /><path
         id="path18"
         style="fill:#52afe6;fill-opacity:1;fill-rule:nonzero;stroke:none"
         d="M 1091.01,612.91 922.871,222.398 h -74.863 l 51.39,119.563 -110.054,270.949 h 79.336 l 41.883,-119.012 26.269,-77.628 28.481,75.949 50.277,120.691 h 75.42" /><path
         id="path20"
         style="fill:#52afe6;fill-opacity:1;fill-rule:nonzero;stroke:none"
         d="m 1334.54,507.332 c -4.47,35.75 -32.39,53.598 -71.5,53.598 -36.88,0 -67.03,-17.848 -77.1,-53.598 z m -149.72,-56.434 c 4.47,-34.066 34.1,-58.66 82.13,-58.66 25.13,0 58.11,9.481 73.75,25.684 l 43.56,-43 c -29.04,-30.16 -76.52,-44.703 -118.43,-44.703 -94.97,0 -151.4,58.66 -151.4,146.929 0,83.782 56.99,144.133 146.37,144.133 92.18,0 149.72,-56.992 139.1,-170.383 h -215.08" /><path
         id="path22"
         style="fill:#52afe6;fill-opacity:1;fill-rule:nonzero;stroke:none"
         d="m 1515.52,612.91 5.04,-31.859 c 21.23,34.07 49.71,39.109 77.66,39.109 28.48,0 55.84,-11.172 70.94,-26.25 l -30.74,-59.219 c -13.96,11.719 -26.8,17.879 -49.15,17.879 -35.76,0 -68.71,-19 -68.71,-69.832 V 337.492 h -68.15 V 612.91 h 63.11" /><path
         id="path24"
         style="fill:#80cc2a;fill-opacity:1;fill-rule:nonzero;stroke:none"
         d="M 2100.95,337.492 V 515.141 H 1851.8 V 337.492 h -30.16 v 391.047 h 30.16 V 542.52 h 249.15 v 186.019 h 30.18 V 337.492 h -30.18" /><path
         id="path26"
         style="fill:#80cc2a;fill-opacity:1;fill-rule:nonzero;stroke:none"
         d="m 2448.44,486.66 c -0.56,68.149 -45.24,106.141 -111.74,106.141 -56.96,0 -106.14,-38.551 -112.27,-106.141 z m -251.95,-11.191 c 0,82.691 62.58,142.453 140.21,142.453 77.66,0 146.93,-47.481 136.33,-155.293 h -248.6 c 5.57,-64.797 55.31,-102.231 112.27,-102.231 36.32,0 78.78,14.524 99.46,41.883 l 19.55,-15.64 c -26.83,-35.192 -74.86,-53.071 -119.01,-53.071 -77.63,0 -140.21,54.192 -140.21,141.899" /><path
         id="path28"
         style="fill:#80cc2a;fill-opacity:1;fill-rule:nonzero;stroke:none"
         d="m 2556.23,475.469 c 0,-69.27 50.28,-115.629 112.83,-115.629 153.64,0 153.64,230.719 0,230.719 -62.55,0 -112.83,-45.821 -112.83,-115.09 z m 253.05,138 c 0,-92.18 0,-183.797 0,-275.977 h -27.36 v 58.656 c -26.83,-43.019 -68.15,-63.136 -112.86,-63.136 -77.07,0 -140.21,58.109 -140.21,142.457 0,84.371 63.14,141.332 140.21,141.332 44.71,0 89.94,-20.653 112.86,-63.672 v 60.34 h 27.36" /><path
         id="path30"
         style="fill:#80cc2a;fill-opacity:1;fill-rule:nonzero;stroke:none"
         d="M 2910.97,728.539 V 337.492 h -27.39 v 391.047 h 27.39" /><path
         id="path32"
         style="fill:#80cc2a;fill-opacity:1;fill-rule:nonzero;stroke:none"
         d="m 3050.6,696.699 v -83.23 h 93.83 v -22.91 H 3050.6 V 422.398 c 0,-37.429 7.81,-63.679 50.83,-63.679 13.4,0 28.48,4.48 42.47,11.172 l 9.48,-22.36 c -17.31,-8.359 -34.63,-13.961 -51.95,-13.961 -58.66,0 -77.66,34.641 -77.66,88.828 v 168.161 h -58.64 v 22.91 h 58.64 v 80.429 l 26.83,2.801" /><path
         id="path34"
         style="fill:#80cc2a;fill-opacity:1;fill-rule:nonzero;stroke:none"
         d="M 3233.84,728.539 V 562.051 c 22.35,39.668 60.88,54.75 99.43,55.308 77.1,0 115.65,-49.711 115.65,-121.777 v -158.09 h -26.83 v 158.09 c 0,56.988 -26.8,95.539 -88.82,95.539 -58.08,0 -98.31,-44.711 -98.31,-102.23 V 337.492 h -27.39 v 391.047 h 26.27" /><path
         id="path36"
         style="fill:#52afe6;fill-opacity:1;fill-rule:nonzero;stroke:none"
         d="m 1126.93,114.699 c -10.14,16.321 -26.49,18.731 -42.22,18.922 -16.32,0 -42.2,-5.98 -42.2,-28.281 0,-17.7306 19.12,-21.8908 42.61,-26.3009 26.88,-5.1797 54.75,-9.9375 54.75,-40.0078 C 1139.68,7.55859 1108.01,0 1084.71,0 c -21.7,0 -46.38,8.94922 -57.13,30.25 l 9.55,4.8008 C 1045.7,18.1211 1067.59,9.75 1084.71,9.75 c 17.12,0 44.41,4.7891 44.41,29.4805 0.19,20.9179 -22.89,25.4883 -45.8,29.8711 -25.49,4.9804 -51.58,10.1601 -51.58,35.8474 -0.59,29.481 30.08,38.621 52.97,38.621 19.92,0 37.24,-3.191 50.98,-23.691 l -8.76,-5.18" /><path
         id="path38"
         style="fill:#52afe6;fill-opacity:1;fill-rule:nonzero;stroke:none"
         d="m 1272.6,77.2695 h 81.64 V 67.4922 H 1272.6 V 12.5508 h 88.02 V 2.19141 h -98.58 V 141.582 h 96.19 V 131.43 H 1272.6 V 77.2695" /><path
         id="path40"
         style="fill:#52afe6;fill-opacity:1;fill-rule:nonzero;stroke:none"
         d="m 1494.7,65.1094 h 49.4 c 24.3,0 35.05,13.7422 35.24,33.2695 0.2,16.3201 -10.94,33.2501 -34.05,33.2501 H 1494.7 Z M 1595.08,2.19141 h -14.16 L 1532.74,54.9688 H 1494.7 V 2.19141 h -10.75 V 141.582 c 20.51,0 40.84,0 61.34,0 30.26,0 45.61,-21.703 45.8,-43.4218 0.19,-22.6914 -14.74,-42.6094 -45.19,-42.6094 l 49.18,-53.35939" /><path
         id="path42"
         style="fill:#52afe6;fill-opacity:1;fill-rule:nonzero;stroke:none"
         d="M 1828.16,141.582 1770.81,1.80078 h -11.56 L 1701.9,141.582 h 11.55 l 51.59,-127.4531 51.56,127.4531 h 11.56" /><path
         id="path44"
         style="fill:#52afe6;fill-opacity:1;fill-rule:nonzero;stroke:none"
         d="M 1946.31,2.19141 V 141.582 h 10.56 V 2.19141 h -10.56" /><path
         id="path46"
         style="fill:#52afe6;fill-opacity:1;fill-rule:nonzero;stroke:none"
         d="M 2202.13,21.5 C 2188.19,7.55859 2169.68,0.609375 2151.37,0.609375 c -47.01,0 -71.51,32.832025 -71.7,70.480425 -0.39,37.2422 23.91,72.0902 71.7,72.0902 18.31,0 36.82,-6.981 50.76,-20.918 l -7.37,-6.371 c -11.94,11.941 -27.68,17.73 -43.39,17.73 -40.64,0 -61.53,-28.672 -61.34,-62.1405 0.39,-32.6407 21.11,-60.9297 61.34,-60.9297 15.71,0 31.64,5.9609 43.61,17.7305 l 7.15,-6.7813" /><path
         id="path48"
         style="fill:#52afe6;fill-opacity:1;fill-rule:nonzero;stroke:none"
         d="m 2337.24,77.2695 h 81.65 v -9.7773 h -81.65 V 12.5508 h 88.02 V 2.19141 h -98.58 V 141.582 h 96.2 V 131.43 h -85.64 V 77.2695" /><path
         id="path50"
         style="fill:#52afe6;fill-opacity:1;fill-rule:nonzero;stroke:none"
         d="m 2642.99,114.699 c -10.14,16.321 -26.49,18.731 -42.22,18.922 -16.32,0 -42.2,-5.98 -42.2,-28.281 0,-17.7306 19.11,-21.8908 42.61,-26.3009 26.87,-5.1797 54.75,-9.9375 54.75,-40.0078 C 2655.73,7.55859 2624.07,0 2600.77,0 c -21.7,0 -46.39,8.94922 -57.14,30.25 l 9.56,4.8008 c 8.56,-16.9297 30.45,-25.3008 47.58,-25.3008 17.14,0 44.41,4.7891 44.41,29.4805 0.19,20.9179 -22.89,25.4883 -45.8,29.8711 -25.49,4.9804 -51.56,10.1601 -51.56,35.8474 -0.61,29.481 30.06,38.621 52.95,38.621 19.92,0 37.23,-3.191 50.97,-23.691 l -8.75,-5.18" /><path
         id="path52"
         style="fill:#80cc2a;fill-opacity:1;fill-rule:nonzero;stroke:none"
         d="m 1840.33,1731.3 v 180.33 c -88.29,23.71 -146.31,34.38 -186.21,34.38 -11.96,0 -22.67,-0.9 -32.75,-2.77 -1.03,-0.19 -2.06,-0.37 -3.1,-0.54 v -177.57 -33.83 h -33.83 -237.72 v -222.06 h 237.72 33.83 v -33.83 -136.63 c 108.88,-30.78 175.77,-44.09 222.06,-44.25 v 180.88 33.83 h 33.83 228.03 v 222.06 h -228.03 -33.83" /><path
         id="path54"
         style="fill:#52afe6;fill-opacity:1;fill-rule:nonzero;stroke:none"
         d="m 2213.26,1069.66 c -60.08,-26.74 -142.37,-63.37 -291.41,-63.37 -218.18,0 -361.82,114.96 -367.83,119.85 l -12.86,10.48 7.98,14.55 c 14.89,27.16 63.12,28.59 147.08,28.77 51.81,0.11 116.28,0.26 140.8,13.46 12.44,6.7 19.73,12.35 23.94,16.45 -16.14,-2.95 -32.72,-4.38 -50.66,-4.38 -56.04,0 -127.46,13.89 -246.51,47.94 -44.17,12.64 -86.18,19.05 -124.85,19.05 -206.03,0 -281.6,-179.1 -305.24,-260.12 28.66,10.2 72.68,20.74 132.22,20.74 14.37,0 29.22,-0.63 44.16,-1.85 86.01,-7.08 163.29,-38.878 238.02,-69.64 85.95,-35.36 174.82,-71.942 278.94,-71.942 202.73,0 380.41,106.922 444.79,174.322 14.86,15.56 23.53,26.2 28.58,33.27 -27.48,-1.02 -53.99,-12.82 -87.15,-27.58" /><path
         id="path56"
         style="fill:#52afe6;fill-opacity:1;fill-rule:nonzero;stroke:none"
         d="m 1236.1,2170.88 c 60.08,26.74 142.37,63.37 291.41,63.37 218.18,0 361.82,-114.96 367.83,-119.85 l 12.87,-10.48 -7.98,-14.55 c -14.9,-27.16 -63.13,-28.59 -147.09,-28.77 -51.8,-0.12 -116.28,-0.26 -140.8,-13.46 -12.44,-6.7 -19.72,-12.35 -23.94,-16.45 16.14,2.95 32.72,4.39 50.66,4.39 56.04,0 127.46,-13.9 246.51,-47.95 44.18,-12.64 86.18,-19.05 124.85,-19.05 203.29,0 280.38,179.15 304.8,259.96 -28.67,-10.15 -72.55,-20.58 -131.78,-20.58 -14.36,0 -29.22,0.63 -44.16,1.86 -86.01,7.07 -163.29,38.88 -238.02,69.63 -85.95,35.37 -174.82,71.94 -278.94,71.94 -202.73,0 -380.41,-106.92 -444.79,-174.32 -14.86,-15.55 -23.53,-26.2 -28.58,-33.27 27.49,1.02 53.99,12.82 87.15,27.58" /><path
         id="path58"
         style="fill:#80cc2a;fill-opacity:1;fill-rule:nonzero;stroke:none"
         d="m 967.598,2027.45 c -7.078,-86 -38.879,-163.29 -69.633,-238.02 -35.371,-85.95 -71.942,-174.82 -71.942,-278.94 0,-202.73 106.922,-380.41 174.317,-444.79 15.55,-14.85 26.19,-23.51 33.26,-28.56 -1.02,27.5 -12.54,53.37 -27.56,87.13 -26.747,60.09 -63.376,142.38 -63.376,291.41 0,218.19 114.956,361.83 119.846,367.83 l 10.48,12.87 14.55,-7.98 c 27.16,-14.9 28.59,-63.13 28.77,-147.09 0.12,-51.8 0.26,-116.27 13.46,-140.79 6.7,-12.45 12.36,-19.73 16.45,-23.95 -11.93,65.24 -0.5,143.14 43.57,297.18 31.58,110.39 23.76,204.25 -23.24,278.96 -57.61,91.56 -161.42,133.76 -217.671,150.69 12.523,-35.36 25.469,-93.9 18.719,-175.95" /><path
         id="path60"
         style="fill:#80cc2a;fill-opacity:1;fill-rule:nonzero;stroke:none"
         d="m 2259.13,1466.79 c 44.09,154.13 55.52,232.04 43.54,297.3 4,-4.19 9.7,-11.5 16.48,-24.07 13.2,-24.52 13.34,-88.99 13.45,-140.79 0.19,-83.96 1.61,-132.19 28.78,-147.09 l 14.55,-7.98 10.47,12.86 c 4.9,6.01 119.85,149.65 119.85,367.84 0,149.03 -36.63,231.32 -63.37,291.41 -15.03,33.78 -26.55,59.66 -27.57,87.14 7.07,-5.05 17.72,-13.72 33.27,-28.57 67.39,-64.38 174.32,-242.07 174.32,-444.79 0,-104.12 -36.58,-193 -71.95,-278.94 -30.75,-74.73 -62.55,-152.02 -69.63,-238.02 -6.75,-82.05 6.19,-140.59 18.72,-175.96 -56.25,16.94 -160.07,59.14 -217.67,150.7 -47,74.71 -54.82,168.56 -23.24,278.96" /></g></g></svg>